:SAMPLES-PER-SECOND 30
:FULLY-SPECIFIED
:DEGREES
173
root  34.98584417 36.50229747 -14.97210405 8.260341644 -8.74475956 4.503218174
lowerback  -7.408324242 -1.155006886 -0.8991939425
upperback  -3.594199896 -1.03076005 -3.911649942
thorax  0.3850179911 -0.3660260141 -3.611040115
lowerneck  1.422359943 -20.06240082 -13.99820042
upperneck  11.64360046 -28.67309952 17.04409981
head  7.88699007 -13.53579998 4.728990078
lclavicle  0 -4.497500157e-015 -2.743230041e-014
lhumerus  -46.30960083 26.31170082 64.90499878
lradius  -0.03774239495 -6.507048965e-006 30.10325813
lwrist  4.824992743e-007 -3.790274832e-007 -27.72470284
lhand  -0 -37.48469925 -10.64169979
lfingers  90 7.125020027 -90
lthumb  95.08271006 -25.45687154 101.6910042
rclavicle  0 -4.497500157e-015 -2.743230041e-014
rhumerus  -20.60390091 -41.15750122 -6.635060787
rradius  -5.16745672e-007 2.214343908e-008 40.06900024
rwrist  -7.499573258e-005 0.03438235447 -161.2169952
rhand  -1.771442025e-031 4.669439793 -7.400259972
rfingers  -90 -7.125020027 -90
rthumb  -84.94188203 -8.663678945 -59.56200401
rfemur  -13.45772457 17.30298805 11.34952068
rtibia  -1.674219012 -2.159004211 21.78078079
rfoot  0.239815563 -23.37830544 -34.08330536
rtoes  3.882238788 19.63474127 -101.4176404
lfemur  -8.648180962 -17.34962463 -21.73359489
ltibia  2.090871572 -2.916667938 15.71686554
lfoot  1.173258662 -20.56726074 40.00393677
ltoes  -8.699772685 -18.07889452 -116.2472463
174
root  34.98788668 36.50122815 -14.9727904 8.230213165 -8.687041283 4.50293684
lowerback  -7.441486359 -1.164654851 -0.9525595903
upperback  -3.592319965 -1.040449977 -3.897609949
thorax  0.4061839879 -0.3697240055 -3.567780018
lowerneck  1.420339942 -20.0489006 -13.9691
upperneck  11.63290024 -28.64690018 17.00349998
head  7.868500233 -13.52610016 4.71957016
lclavicle  0 -4.497500157e-015 -2.743230041e-014
lhumerus  -46.32730103 26.31459999 64.90720367
lradius  -0.0371517837 -6.507048965e-006 30.11335182
lwrist  4.824992743e-007 -3.790274832e-007 -27.65559769
lhand  -0 -37.44829941 -10.54469967
lfingers  90 7.125020027 -90
lthumb  95.04398143 -25.36320994 101.6428053
rclavicle  0 -4.497500157e-015 -2.743230041e-014
rhumerus  -20.73590088 -41.08490372 -6.522119999
rradius  -5.16745672e-007 2.214343908e-008 39.99449921
rwrist  -7.499573258e-005 0.03438235447 -161.4230042
rhand  -1.771493782e-031 4.689889908 -7.321790218
rfingers  -90 -7.125020027 -90
rthumb  -84.89686875 -8.732641804 -59.53599597
rfemur  -13.42039776 17.34006119 11.36632347
rtibia  -1.673689127 -2.140842676 21.78738785
rfoot  0.2250738293 -23.35535431 -34.1557579
rtoes  3.881384704 19.63490371 -101.4150987
lfemur  -8.562144279 -17.30611992 -21.76013374
ltibia  2.13575387 -2.873206377 15.64256191
lfoot  1.185854554 -20.62574959 39.99471283
ltoes  -8.695706598 -18.08079991 -116.2341444
175
root  34.98857153 36.50114405 -14.97366447 8.224093437 -8.630788803 4.497354507
lowerback  -7.436100006 -1.165526271 -0.95149827
upperback  -3.591701984 -1.044020057 -3.907459974
thorax  0.402541995 -0.3749872446 -3.579109907
lowerneck  1.44501996 -20.04120064 -13.97420025
upperneck  11.61419964 -28.63579941 17.00629997
head  7.85763979 -13.5237999 4.726130009
lclavicle  0 -4.497500157e-015 -2.743230041e-014
lhumerus  -46.36159897 26.37490082 64.84970093
lradius  -0.036552798 -6.507048965e-006 30.09900093
lwrist  4.824992743e-007 -3.790274832e-007 -27.75180054
lhand  -4.44596016e-031 -37.41719818 -10.4666996
lfingers  90 7.125020027 -90
lthumb  95.01212002 -25.28797094 101.6021641
rclavicle  0 -4.497500157e-015 -2.743230041e-014
rhumerus  -20.88739777 -41.10849762 -6.411739826
rradius  -5.16745672e-007 2.214343908e-008 39.93360138
rwrist  -7.499573258e-005 0.03438235447 -161.4459991
rhand  -1.771389417e-031 4.648560047 -7.174099922
rfingers  -90 -7.125020027 -90
rthumb  -84.83089073 -8.85728975 -59.56468851
rfemur  -13.39878082 17.33156967 11.37962341
rtibia  -1.672917604 -2.131180525 21.77824593
rfoot  0.213512972 -23.34229088 -34.21310425
rtoes  3.881776104 19.63482928 -101.4162635
lfemur  -8.609130859 -17.34241867 -21.73012924
ltibia  2.096192837 -2.894984007 15.71110439
lfoot  1.159053683 -20.60993767 39.91712952
ltoes  -8.656019616 -18.09933869 -116.1063329
176
root  34.99112467 36.5013453 -14.97463767 8.224347115 -8.582147598 4.476765633
lowerback  -7.414247513 -1.162406802 -0.9867229462
upperback  -3.591397524 -1.056689978 -3.916470051
thorax  0.3925920129 -0.3769429922 -3.570300102
lowerneck  1.429759979 -20.02400017 -13.96170044
upperneck  11.6164999 -28.61059952 17.00359917
head  7.854629993 -13.51060009 4.727270126
lclavicle  0 -4.497500157e-015 -2.743230041e-014
lhumerus  -46.39920044 26.4307003 64.78990173
lradius  -0.03594535962 -6.507048965e-006 30.09879875
lwrist  4.824992743e-007 -3.790274832e-007 -27.88429832
lhand  -0 -37.41870117 -10.46240044
lfingers  90 7.125020027 -90
lthumb  95.01189128 -25.2837258 101.6034167
rclavicle  0 -4.497500157e-015 -2.743230041e-014
rhumerus  -21.00090027 -41.05580139 -6.344661713
rradius  -5.16745672e-007 2.214343908e-008 39.87990189
rwrist  -7.499573258e-005 0.03438235447 -161.6159973
rhand  -1.771580414e-031 4.723919868 -7.538799763
rfingers  -90 -7.125020027 -90
rthumb  -85.00023236 -8.547837055 -59.51951854
rfemur  -13.37791348 17.33868599 11.40899754
rtibia  -1.671431184 -2.092183352 21.74967575
rfoot  0.2393897325 -23.24875641 -34.22593689
rtoes  3.872129438 19.63666159 -101.3875565
lfemur  -8.720149994 -17.34932518 -21.65798378
ltibia  2.009077072 -2.904837132 15.86675644
lfoot  1.141445398 -20.67188263 39.81894302
ltoes  -8.64364215 -18.10509876 -116.0664972
177
root  34.99442874 36.50146244 -14.97567995 8.223545074 -8.545519829 4.47034502
lowerback  -7.376042843 -1.158897877 -0.9524515271
upperback  -3.59136343 -1.037850022 -3.951370001
thorax  0.3596659899 -0.3674109876 -3.622980118
lowerneck  1.477149963 -20.02750015 -13.98750019
upperneck  11.6097002 -28.62389946 17.05060005
head  7.858230114 -13.51710033 4.746200085
lclavicle  0 -4.497500157e-015 -2.743230041e-014
lhumerus  -46.42720032 26.32250023 64.7960968
lradius  -0.03532939404 -6.507048965e-006 30.14389992
lwrist  4.824992743e-007 -3.790274832e-007 -27.86630058
lhand  -4.445983938e-031 -37.41759872 -10.39480019
lfingers  90 7.125020027 -90
lthumb  94.99632376 -25.21750307 101.5957852
rclavicle  0 -4.497500157e-015 -2.743230041e-014
rhumerus  -21.22179985 -40.9530983 -6.2362113
rradius  -5.16745672e-007 2.214343908e-008 39.87960052
rwrist  -7.499573258e-005 0.03438235447 -161.8130035
rhand  -1.771750501e-031 4.790019989 -7.727749825
rfingers  -90 -7.125020027 -90
rthumb  -85.08196738 -8.389453897 -59.46937626
rfemur  -13.36038589 17.29175377 11.41023922
rtibia  -1.668315172 -2.091474295 21.71972466
rfoot  0.2513753772 -23.22774696 -34.22706223
rtoes  3.880031935 19.63516092 -101.4110729
lfemur  -8.759098053 -17.37782478 -21.63428879
ltibia  1.981150627 -2.893711805 15.92422104
lfoot  1.161839247 -20.73527145 39.84172821
ltoes  -8.648619581 -18.10278367 -116.0825151
178
root  34.99647426 36.50091877 -14.97677931 8.210053444 -8.504513741 4.489043713
lowerback  -7.382840633 -1.158599973 -0.9227096438
upperback  -3.59155488 -1.035249949 -3.960540056
thorax  0.3649710119 -0.3663569987 -3.648989916
lowerneck  1.499670029 -20.01729965 -13.9520998
upperneck  11.56820011 -28.60449982 17.04269981
head  7.831150055 -13.51109982 4.747809887
lclavicle  0 -4.497500157e-015 -2.743230041e-014
lhumerus  -46.43209839 26.18479919 64.86470032
lradius  -0.03470481932 -6.507048965e-006 30.20339966
lwrist  4.824992743e-007 -3.790274832e-007 -27.68460083
lhand  -4.448771503e-031 -37.46450043 -10.41259956
lfingers  90 7.125020027 -90
lthumb  95.0220124 -25.23324398 101.647467
rclavicle  0 -4.497500157e-015 -2.743230041e-014
rhumerus  -21.38099861 -40.91409683 -6.163580894
rradius  -5.16745672e-007 2.214343908e-008 39.88209915
rwrist  -7.499573258e-005 0.03438235447 -161.8690033
rhand  -1.77191305e-031 4.852340221 -7.679130077
rfingers  -90 -7.125020027 -90
rthumb  -85.04263285 -8.43557327 -59.40508016
rfemur  -13.3595438 17.28100395 11.4043169
rtibia  -1.680597305 -2.078919411 21.75549316
rfoot  0.2361307591 -23.19938278 -34.24964905
rtoes  3.846458459 19.64151443 -101.3111762
lfemur  -8.689372063 -17.31831169 -21.67992783
ltibia  2.037073135 -2.858403444 15.83382225
lfoot  1.178962708 -20.77001953 39.84265518
ltoes  -8.673947642 -18.09097724 -116.1640542
179
root  34.99733031 36.50038411 -14.97918076 8.197602272 -8.45147419 4.489583492
lowerback  -7.383619785 -1.165130019 -0.9447209835
upperback  -3.591928244 -1.042469978 -3.955679893
thorax  0.3703790009 -0.3696660101 -3.632070065
lowerneck  1.529279947 -19.9878006 -13.92000008
upperneck  11.48250008 -28.55750275 17.06889915
head  7.790019989 -13.49289989 4.766670227
lclavicle  0 -4.497500157e-015 -2.743230041e-014
lhumerus  -46.46640015 26.26420021 64.80110168
lradius  -0.03407156095 -6.507048965e-006 30.17680168
lwrist  4.824992743e-007 -3.790274832e-007 -27.82629967
lhand  -4.448069638e-031 -37.45270157 -10.50990009
lfingers  90 7.125020027 -90
lthumb  95.03823655 -25.32895355 101.644127
rclavicle  0 -4.497500157e-015 -2.743230041e-014
rhumerus  -21.50189972 -40.90429688 -6.095270157
rradius  -5.16745672e-007 2.214343908e-008 39.89319992
rwrist  -7.499573258e-005 0.03438235447 -161.8170013
rhand  -1.77188402e-031 4.84126997 -7.754370213
rfingers  -90 -7.125020027 -90
rthumb  -85.08383498 -8.370105552 -59.42144982
rfemur  -13.33986282 17.27766991 11.41034603
rtibia  -1.677803993 -2.083435059 21.76012993
rfoot  0.218946889 -23.22380257 -34.29914856
rtoes  3.849770177 19.64089027 -101.3210288
lfemur  -8.645583153 -17.35084534 -21.6972847
ltibia  2.062533617 -2.833729267 15.79429913
lfoot  1.18935132 -20.8073616 39.86373901
ltoes  -8.677241625 -18.0894386 -116.1746624
